<?xml version="1.0" encoding="iso-8859-1"?>
<!-- Uploaded to: SVG Repo, www.svgrepo.com, Generator: SVG Repo Mixer Tools -->
<svg height="800px" width="800px" version="1.1" id="Layer_1" xmlns="http://www.w3.org/2000/svg" xmlns:xlink="http://www.w3.org/1999/xlink" 
	 viewBox="0 0 505.482 505.482" xml:space="preserve">
<g transform="translate(1 1)">
	<path style="fill:#E2E3E5;" d="M140.163,504.482c-31.879,0-62.792-11.592-86.943-35.743
		c-23.185-23.185-35.743-54.098-35.743-86.943s12.558-63.758,35.743-86.943L316.948,32.089
		c18.355-18.355,41.54-27.049,65.691-26.083c23.185,0.966,46.37,11.592,64.725,29.947c17.389,17.389,28.015,40.574,28.981,63.758
		c0.966,24.151-7.728,47.336-25.117,65.691L202.956,412.708c-10.626,10.626-24.151,16.423-38.642,16.423
		c-14.491,0-28.015-5.796-38.642-16.423c-10.626-10.626-16.423-24.151-16.423-38.642s5.796-28.015,16.423-38.642l168.091-168.091
		c3.864-3.864,9.66-3.864,13.525,0c3.864,3.864,3.864,9.66,0,13.525L139.197,348.949c-6.762,6.762-10.626,15.457-10.626,25.117
		s3.864,18.355,10.626,25.117c13.525,13.525,36.709,13.525,50.234,0l247.306-247.306c13.525-13.525,21.253-31.879,20.287-50.234
		c-0.966-18.355-9.66-36.709-24.151-51.2s-32.845-23.185-51.2-24.151c-18.355-0.966-36.709,5.796-50.234,20.287L66.745,309.342
		c-19.321,19.321-29.947,45.404-29.947,73.419c0,28.015,10.626,54.098,29.947,73.419c40.574,40.574,106.264,40.574,145.872,0
		l263.728-263.728c3.864-3.864,9.66-3.864,13.525,0s3.864,9.66,0,13.525L227.107,468.738
		C202.956,492.889,172.043,504.482,140.163,504.482z"/>
	<path style="fill:#B6B6B6;" d="M133.401,497.719c-31.879,0-62.792-11.592-86.943-35.743
		c-23.185-23.185-35.743-54.098-35.743-86.943s12.558-63.758,35.743-86.943L310.186,24.361
		C327.575,6.972,350.76-2.688,375.877-0.756c23.185,0.966,46.37,11.592,64.725,29.947s28.015,40.574,29.947,64.725
		c0.966,24.151-7.728,47.336-25.117,65.691l-249.238,246.34c-21.253,21.253-56.03,21.253-77.283,0
		c-10.626-10.626-16.423-24.151-16.423-38.642s5.796-28.015,16.423-38.642l168.091-168.091c3.864-3.864,9.66-3.864,13.525,0
		s3.864,9.66,0,13.525L132.435,342.187c-6.762,6.762-10.626,15.457-10.626,25.117s3.864,18.355,10.626,25.117
		c13.525,13.525,36.709,13.525,50.234,0l247.306-247.306c13.525-13.525,21.253-31.879,20.287-50.234
		c-0.966-18.355-9.66-36.709-24.151-51.2s-32.845-23.185-51.2-24.151c-18.355-0.966-36.709,5.796-50.234,20.287L59.982,302.58
		c-19.321,19.321-29.947,45.404-29.947,73.419s10.626,54.098,29.947,73.419c40.574,40.574,106.264,40.574,145.872,0l263.728-263.728
		c3.864-3.864,9.66-3.864,13.525,0c3.864,3.864,3.864,9.66,0,13.525L220.345,461.976
		C196.194,486.127,164.314,497.719,133.401,497.719z"/>
</g>
</svg>